<svg id="boton-editar-big" xmlns="http://www.w3.org/2000/svg" xmlns:xlink="http://www.w3.org/1999/xlink" width="35" height="35" viewBox="0 0 35 35">
  <defs>
    <clipPath id="clip-path">
      <rect id="Rectangle_33" data-name="Rectangle 33" width="15.538" height="15.537" fill="#535353"/>
    </clipPath>
  </defs>
  <circle id="Ellipse_14" data-name="Ellipse 14" cx="17.5" cy="17.5" r="17.5" fill="#ffe4b4"/>
  <g id="Group_38" data-name="Group 38" transform="translate(11 9.413)">
    <g id="Group_37" data-name="Group 37" transform="translate(0 0)" clip-path="url(#clip-path)">
      <path id="Path_64" data-name="Path 64" d="M5.582,15.538l-.053,0C4.044,15.413,2.447,15.39.8,15.375a.648.648,0,0,1-.642-.643C.147,13.085.124,11.486,0,10.01A.652.652,0,0,1,.189,9.5L9.5.19a.652.652,0,0,1,.659-.158,8.336,8.336,0,0,1,5.35,5.349.649.649,0,0,1-.158.66L6.04,15.348a.648.648,0,0,1-.459.19M1.454,14.084c1.334.015,2.637.043,3.879.135L14.14,5.413A7.038,7.038,0,0,0,10.125,1.4L1.318,10.2c.091,1.237.121,2.542.136,3.88" transform="translate(0 0)" fill="#535353"/>
      <path id="Path_65" data-name="Path 65" d="M17.969,7.987a.325.325,0,0,1-.23-.095L13.305,3.458A.324.324,0,0,1,13.764,3L18.2,7.433a.324.324,0,0,1-.23.554" transform="translate(-4.64 -1.02)" fill="#535353"/>
      <path id="Path_66" data-name="Path 66" d="M6.086,19.869a.324.324,0,0,1-.309-.224,6.594,6.594,0,0,0-4.221-4.221.324.324,0,0,1,.2-.617,7.244,7.244,0,0,1,4.639,4.639.325.325,0,0,1-.21.409.33.33,0,0,1-.1.016" transform="translate(-0.468 -5.195)" fill="#535353"/>
      <path id="Path_67" data-name="Path 67" d="M3.252,21.661H3.243l-2.221-.077a.322.322,0,0,1-.313-.313l-.08-2.314a.326.326,0,0,1,.3-.335,1.648,1.648,0,0,1,.2-.018A2.479,2.479,0,0,1,3.6,21.081a1.767,1.767,0,0,1-.024.263.37.37,0,0,1-.329.317m-1.906-.714L2.954,21a1.829,1.829,0,0,0-1.665-1.741Z" transform="translate(-0.221 -6.535)" fill="#535353"/>
    </g>
  </g>
</svg>
