<svg id="boton-factura-mini" xmlns="http://www.w3.org/2000/svg" xmlns:xlink="http://www.w3.org/1999/xlink" width="23" height="23" viewBox="0 0 23 23">
  <defs>
    <clipPath id="clip-path">
      <rect id="Rectangle_34" data-name="Rectangle 34" width="12" height="12.558" fill="#535353"/>
    </clipPath>
  </defs>
  <circle id="Ellipse_15" data-name="Ellipse 15" cx="11.5" cy="11.5" r="11.5" fill="#f2cd7a"/>
  <g id="Group_40" data-name="Group 40" transform="translate(6.188 5.202)">
    <g id="Group_39" data-name="Group 39" clip-path="url(#clip-path)">
      <path id="Path_68" data-name="Path 68" d="M9.062,13.04H.518A.517.517,0,0,1,0,12.522v-11A.517.517,0,0,1,.518,1H9.062a.517.517,0,0,1,.518.518v3.3a.518.518,0,0,1-1.036,0V2.036H1.036V12H8.544V7.818a.518.518,0,0,1,1.036,0v4.7a.517.517,0,0,1-.518.518" transform="translate(0 -0.482)" fill="#535353"/>
      <path id="Path_69" data-name="Path 69" d="M8.346,2.2H4.85a1.1,1.1,0,1,1,0-2.2h3.5a1.1,1.1,0,1,1,0,2.2M4.85,1.036a.065.065,0,1,0,0,.129h3.5a.065.065,0,1,0,0-.129Z" transform="translate(-1.808)" fill="#535353"/>
      <path id="Path_70" data-name="Path 70" d="M8.791,12.818a.575.575,0,0,1-.066,0L7.05,12.6a.518.518,0,0,1-.436-.64l.411-1.638a.516.516,0,0,1,.21-.3l5.872-4.007a.519.519,0,0,1,.72.137L15.091,8a.518.518,0,0,1-.135.72L9.083,12.728a.524.524,0,0,1-.293.09M7.76,11.645l.9.117,5.283-3.6-.68-1-5.281,3.6Z" transform="translate(-3.182 -2.855)" fill="#535353"/>
      <path id="Path_71" data-name="Path 71" d="M18.911,10.041a.258.258,0,0,1-.213-.113L17.56,8.262a.259.259,0,1,1,.428-.292l1.138,1.666a.259.259,0,0,1-.214.4" transform="translate(-8.445 -3.788)" fill="#535353"/>
      <path id="Path_72" data-name="Path 72" d="M9.962,13.151a.259.259,0,0,1-.146-.473L14.4,9.551a.259.259,0,1,1,.293.428l-4.585,3.127a.261.261,0,0,1-.147.045" transform="translate(-4.679 -4.583)" fill="#535353"/>
      <path id="Path_73" data-name="Path 73" d="M7.857,16.3H7.81l-.2.795.78.1c.012-.027.025-.056.036-.086a.615.615,0,0,0-.553-.808H7.857" transform="translate(-3.67 -7.861)" fill="#535353"/>
      <path id="Path_74" data-name="Path 74" d="M8.15,17.217l-.033,0-.78-.1a.259.259,0,0,1-.219-.32l.2-.795a.268.268,0,0,1,.258-.2h.082a.872.872,0,0,1,.777,1.137,1.243,1.243,0,0,1-.05.124.258.258,0,0,1-.235.15m-.458-.578.264.033a.359.359,0,0,0-.06-.2.348.348,0,0,0-.135-.114Z" transform="translate(-3.428 -7.621)" fill="#535353"/>
    </g>
  </g>
</svg>
