<svg xmlns="http://www.w3.org/2000/svg" xmlns:xlink="http://www.w3.org/1999/xlink" width="115" height="22.703" viewBox="0 0 115 22.703">
  <defs>
    <clipPath id="clip-path">
      <rect id="Rectangle_3" data-name="Rectangle 3" width="115" height="22.703" fill="#fff"/>
    </clipPath>
  </defs>
  <g id="Group_3" data-name="Group 3" transform="translate(0 0)">
    <path id="Path_1" data-name="Path 1" d="M8.983,0V5.638h1.96V1.96H29.726V20.744H10.943V17.222H8.983V22.7h22.7V0Z" transform="translate(-6.856)" fill="#fff"/>
    <g id="Group_2" data-name="Group 2" transform="translate(0 0)">
      <g id="Group_1" data-name="Group 1" transform="translate(0 0)" clip-path="url(#clip-path)">
        <path id="Path_2" data-name="Path 2" d="M45.865,66.008a1.179,1.179,0,1,1-1.179-1.179,1.179,1.179,0,0,1,1.179,1.179" transform="translate(-33.204 -49.478)" fill="#fff"/>
        <path id="Path_3" data-name="Path 3" d="M67.26,66.008a1.179,1.179,0,1,1-1.179-1.179,1.18,1.18,0,0,1,1.179,1.179" transform="translate(-49.533 -49.478)" fill="#fff"/>
        <path id="Path_4" data-name="Path 4" d="M39.688,33.3h-6.9a.947.947,0,0,1-.934-.788l-1.063-6.234H29.133V24.383h2.459a.947.947,0,0,1,.934.788l.178,1.042h7.917a.947.947,0,0,1,.932,1.115L40.62,32.52a.947.947,0,0,1-.932.78m-6.1-1.894H38.9l.593-3.3H33.026Z" transform="translate(-22.234 -18.609)" fill="#fff"/>
        <path id="Path_5" data-name="Path 5" d="M4.457,31.969H.734a.849.849,0,0,0,0,1.682H4.457a.849.849,0,0,0,0-1.682" transform="translate(0 -24.399)" fill="#fff"/>
        <path id="Path_6" data-name="Path 6" d="M11.88,44.394H9.17a.844.844,0,0,0,0,1.682h2.71a.844.844,0,0,0,0-1.682" transform="translate(-6.409 -33.882)" fill="#fff"/>
        <path id="Path_7" data-name="Path 7" d="M7.123,56.8H4.273a.85.85,0,0,0,0,1.682h2.85a.85.85,0,0,0,0-1.682" transform="translate(-2.708 -43.352)" fill="#fff"/>
        <path id="Path_8" data-name="Path 8" d="M185.065,35.349h-6.582a2.344,2.344,0,0,0,2.37,1.841,3.251,3.251,0,0,0,2.319-.972l1.381,1.4a5.116,5.116,0,0,1-3.922,1.62,4.441,4.441,0,0,1-4.791-4.655,4.47,4.47,0,0,1,4.723-4.706c3.223,0,4.723,2.131,4.5,5.474M182.61,33.8a1.915,1.915,0,0,0-2.029-2,2.152,2.152,0,0,0-2.149,2Z" transform="translate(-134.202 -22.801)" fill="#fff"/>
        <path id="Path_9" data-name="Path 9" d="M227.8,34.547a4.554,4.554,0,0,1-4.91,4.689c-2.95,0-4.928-1.892-4.928-4.689,0-2.813,1.978-4.672,4.928-4.672,2.933,0,4.91,1.859,4.91,4.672m-7.212.034a2.3,2.3,0,1,0,4.587,0,2.3,2.3,0,1,0-4.587,0" transform="translate(-166.348 -22.801)" fill="#fff"/>
        <path id="Path_10" data-name="Path 10" d="M307.709,31.658c-.614,0-1.058.2-1.058.682,0,1.381,4.843.682,4.825,3.922,0,1.876-1.654,2.865-3.734,2.865a6.405,6.405,0,0,1-3.973-1.279l.852-1.773a5.527,5.527,0,0,0,3.188,1.143c.665,0,1.159-.222,1.159-.716,0-1.466-4.757-.682-4.757-3.9,0-1.892,1.62-2.865,3.615-2.865a6.841,6.841,0,0,1,3.581,1.023l-.9,1.79a6.2,6.2,0,0,0-2.8-.887" transform="translate(-231.838 -22.691)" fill="#fff"/>
        <path id="Path_11" data-name="Path 11" d="M389.563,34.547a4.554,4.554,0,0,1-4.911,4.689c-2.95,0-4.928-1.892-4.928-4.689,0-2.813,1.978-4.672,4.928-4.672,2.932,0,4.911,1.859,4.911,4.672m-7.212.034a2.3,2.3,0,1,0,4.587,0,2.3,2.3,0,1,0-4.587,0" transform="translate(-289.807 -22.801)" fill="#fff"/>
        <path id="Path_12" data-name="Path 12" d="M434.947,34.6c0,2.779-1.688,4.638-4.263,4.638a3.472,3.472,0,0,1-2.95-1.432v4.638h-2.626V29.96h2.626v1.347a3.4,3.4,0,0,1,2.9-1.432c2.575,0,4.314,1.893,4.314,4.723m-2.66-.085a2.288,2.288,0,1,0-4.553,0,2.29,2.29,0,1,0,4.553,0" transform="translate(-324.444 -22.801)" fill="#fff"/>
        <path id="Path_13" data-name="Path 13" d="M263.631,28.771h2.662V30.1a3.322,3.322,0,0,1,2.75-1.506c2.014,0,3.187,1.331,3.187,3.485v6.077h-2.662V32.922c0-1.261-.6-1.909-1.611-1.909s-1.664.648-1.664,1.909v5.236h-2.662Z" transform="translate(-201.204 -21.825)" fill="#fff"/>
        <path id="Path_14" data-name="Path 14" d="M340.418,15.546h2.662v4.6a3.321,3.321,0,0,1,2.749-1.506c2.014,0,3.187,1.331,3.187,3.485V28.2h-2.662V22.962c0-1.261-.6-1.909-1.611-1.909s-1.664.648-1.664,1.909V28.2h-2.662Z" transform="translate(-259.808 -11.865)" fill="#fff"/>
        <path id="Path_15" data-name="Path 15" d="M136.673,27.82a3.448,3.448,0,0,1-2.925-1.524v1.349h-2.662V14.861h2.662v4.623a3.6,3.6,0,0,1,2.925-1.4c2.224,0,4.273,1.716,4.273,4.851v.035c0,3.135-2.084,4.851-4.273,4.851m-.683-2.259a2.394,2.394,0,0,0,2.294-2.592v-.035a2.3,2.3,0,1,0-4.57,0v.035a2.381,2.381,0,0,0,2.276,2.592" transform="translate(-100.045 -11.342)" fill="#fff"/>
        <path id="Path_16" data-name="Path 16" d="M472,29.1v1.336h-.37V29.1h-.469v-.32h1.307v.32Z" transform="translate(-359.595 -21.964)" fill="#fff"/>
        <path id="Path_17" data-name="Path 17" d="M479.308,29.393l-.448.9h-.22l-.445-.9v1.042h-.369V28.779h.5l.426.91.429-.91h.5v1.655h-.369Z" transform="translate(-364.678 -21.964)" fill="#fff"/>
      </g>
    </g>
  </g>
</svg>
