<svg id="Grupo_203" data-name="Grupo 203" xmlns="http://www.w3.org/2000/svg" xmlns:xlink="http://www.w3.org/1999/xlink" width="16" height="10.51" viewBox="0 0 16 10.51">
  <defs>
    <clipPath id="clip-path">
      <rect id="Rectángulo_239" data-name="Rectángulo 239" width="16" height="10.51" fill="#fff"/>
    </clipPath>
  </defs>
  <g id="Grupo_202" data-name="Grupo 202" transform="translate(0 0)" clip-path="url(#clip-path)">
    <path id="Trazado_313" data-name="Trazado 313" d="M7.825,7.542a.643.643,0,0,1-.255-.053L.386,4.359a.641.641,0,0,1,0-1.176L7.57.053a.641.641,0,0,1,.512,0l7.183,3.13a.642.642,0,0,1,0,1.176L8.082,7.489a.648.648,0,0,1-.257.053M2.247,3.771,7.825,6.2,13.4,3.771,7.825,1.341Z" transform="translate(0 0)" fill="#fff"/>
    <path id="Trazado_314" data-name="Trazado 314" d="M8.9,12.843a10.039,10.039,0,0,1-5.62-1.749A.641.641,0,0,1,3,10.561V7.142a.641.641,0,1,1,1.282,0v3.07a8.625,8.625,0,0,0,9.244,0V7.142a.641.641,0,1,1,1.282,0v3.419a.643.643,0,0,1-.283.532A10.043,10.043,0,0,1,8.9,12.843" transform="translate(-1.075 -2.333)" fill="#fff"/>
    <path id="Trazado_315" data-name="Trazado 315" d="M23.776,10.677a.321.321,0,0,1-.321-.321v-4.7a.321.321,0,1,1,.641,0v4.7a.32.32,0,0,1-.321.321" transform="translate(-8.417 -1.914)" fill="#fff"/>
    <path id="Trazado_316" data-name="Trazado 316" d="M23.6,12.194a.641.641,0,0,1-.641-.641V9.309a.641.641,0,1,1,1.282,0v2.244a.641.641,0,0,1-.641.641" transform="translate(-8.237 -3.11)" fill="#fff"/>
  </g>
</svg>
