<svg id="Grupo_201" data-name="Grupo 201" xmlns="http://www.w3.org/2000/svg" xmlns:xlink="http://www.w3.org/1999/xlink" width="16" height="16" viewBox="0 0 16 16">
  <defs>
    <clipPath id="clip-path">
      <rect id="Rectángulo_238" data-name="Rectángulo 238" width="16" height="16" fill="#fff"/>
    </clipPath>
  </defs>
  <g id="Grupo_200" data-name="Grupo 200" clip-path="url(#clip-path)">
    <path id="Trazado_312" data-name="Trazado 312" d="M8.875,16H7.125a1.16,1.16,0,0,1-1.158-1.158V13.71l-.543-.21-.825.777a1.187,1.187,0,0,1-1.637,0L1.725,13.038a1.156,1.156,0,0,1,0-1.639l.8-.8-.234-.537-1.133-.031A1.16,1.16,0,0,1,0,8.876V7.125A1.16,1.16,0,0,1,1.158,5.966H2.291l.21-.542L1.725,4.6a1.156,1.156,0,0,1,0-1.639L2.963,1.724a1.187,1.187,0,0,1,1.638,0l.8.8.533-.235.033-1.132A1.159,1.159,0,0,1,7.125,0h1.75a1.16,1.16,0,0,1,1.159,1.158V2.29l.543.21.823-.777a1.162,1.162,0,0,1,1.638,0l1.238,1.241a1.159,1.159,0,0,1,0,1.638l-.8.8.236.534,1.133.032A1.159,1.159,0,0,1,16,7.125v1.75a1.159,1.159,0,0,1-1.157,1.157H13.71l-.212.544.777.824a1.158,1.158,0,0,1,0,1.639L13.04,14.276a1.187,1.187,0,0,1-1.637,0l-.8-.8-.533.234-.032,1.132A1.16,1.16,0,0,1,8.875,16M7.329,14.638H8.673V13.71a1.4,1.4,0,0,1,.916-1.274l.468-.195a1.245,1.245,0,0,1,.539-.113,1.368,1.368,0,0,1,.966.385l.657.656.95-.95-.657-.656a1.4,1.4,0,0,1-.251-1.55l.191-.468a1.38,1.38,0,0,1,1.258-.874h.928V7.328H13.71a1.4,1.4,0,0,1-1.275-.92l-.194-.464a1.383,1.383,0,0,1,.27-1.5l.658-.658-.95-.95-.657.657a1.416,1.416,0,0,1-1.55.252l-.466-.191A1.381,1.381,0,0,1,8.673,2.29V1.362H7.329V2.29A1.393,1.393,0,0,1,6.41,3.564l-.466.195a1.245,1.245,0,0,1-.54.114,1.366,1.366,0,0,1-.966-.386l-.656-.656-.95.95.656.656a1.4,1.4,0,0,1,.251,1.55l-.189.466a1.383,1.383,0,0,1-1.26.875H1.362V8.671h.929a1.4,1.4,0,0,1,1.275.917l.194.47a1.382,1.382,0,0,1-.271,1.5l-.657.657.95.95.656-.656a1.415,1.415,0,0,1,1.55-.253l.466.191a1.364,1.364,0,0,1,.874,1.258ZM8,10.988A2.988,2.988,0,1,1,10.988,8,2.991,2.991,0,0,1,8,10.988M8,6.373A1.626,1.626,0,1,0,9.627,8,1.628,1.628,0,0,0,8,6.373" fill="#fff"/>
  </g>
</svg>
