<svg xmlns="http://www.w3.org/2000/svg" xmlns:xlink="http://www.w3.org/1999/xlink" width="16" height="14.541" viewBox="0 0 16 14.541">
  <defs>
    <clipPath id="clip-path">
      <rect id="Rectángulo_11" data-name="Rectángulo 11" width="16" height="14.541" fill="#fff"/>
    </clipPath>
  </defs>
  <g id="Grupo_19" data-name="Grupo 19" transform="translate(0 -0.001)">
    <g id="Grupo_18" data-name="Grupo 18" transform="translate(0 0)" clip-path="url(#clip-path)">
      <path id="Trazado_32" data-name="Trazado 32" d="M13.328,7.535a2.661,2.661,0,0,1-1.776-.686A2.64,2.64,0,0,1,8,6.849a2.641,2.641,0,0,1-3.552,0A2.664,2.664,0,0,1,0,4.862a.621.621,0,0,1,.042-.225L1.695.394A.62.62,0,0,1,2.272,0H13.42a.619.619,0,0,1,.562.359L15.943,4.6a.631.631,0,0,1,.057.26,2.676,2.676,0,0,1-2.672,2.673M11.552,5.257a.62.62,0,0,1,.537.312,1.417,1.417,0,0,0,1.239.728,1.437,1.437,0,0,0,1.429-1.31L13.024,1.239H2.695L1.242,4.969A1.437,1.437,0,0,0,2.673,6.3a1.415,1.415,0,0,0,1.237-.728.645.645,0,0,1,1.075,0,1.416,1.416,0,0,0,2.476,0,.646.646,0,0,1,1.076,0,1.416,1.416,0,0,0,2.476,0,.622.622,0,0,1,.538-.312" transform="translate(0 0)" fill="#fff"/>
      <path id="Trazado_33" data-name="Trazado 33" d="M14.725,18.531H3.371a.619.619,0,0,1-.619-.619V11.1a.619.619,0,1,1,1.239,0v6.193H14.106V11.1a.619.619,0,1,1,1.239,0v6.812a.619.619,0,0,1-.619.619" transform="translate(-1.048 -3.99)" fill="#fff"/>
      <path id="Trazado_34" data-name="Trazado 34" d="M14.109,19.307H6.884a.309.309,0,0,1-.31-.31V14.456a.309.309,0,0,1,.31-.31h7.225a.31.31,0,0,1,.31.31V19a.31.31,0,0,1-.31.31m-6.916-.619H13.8V14.765H7.193Z" transform="translate(-2.502 -5.385)" fill="#fff"/>
      <path id="Trazado_35" data-name="Trazado 35" d="M15.07,3.765H3.148a.31.31,0,0,1,0-.619H15.07a.31.31,0,0,1,0,.619" transform="translate(-1.08 -1.198)" fill="#fff"/>
    </g>
  </g>
</svg>
