<svg xmlns="http://www.w3.org/2000/svg" xmlns:xlink="http://www.w3.org/1999/xlink" width="16" height="14.258" viewBox="0 0 16 14.258">
  <defs>
    <clipPath id="clip-path">
      <rect id="Rectángulo_236" data-name="Rectángulo 236" width="16" height="14.258" fill="#fff"/>
    </clipPath>
  </defs>
  <g id="Grupo_197" data-name="Grupo 197" transform="translate(0 0)">
    <g id="Grupo_196" data-name="Grupo 196" transform="translate(0 0)" clip-path="url(#clip-path)">
      <path id="Trazado_303" data-name="Trazado 303" d="M6.461,6.695a3.19,3.19,0,0,1-3-3.347A3.19,3.19,0,0,1,6.461,0,3.189,3.189,0,0,1,9.455,3.347,3.189,3.189,0,0,1,6.461,6.695m0-5.315A1.82,1.82,0,0,0,4.844,3.347,1.82,1.82,0,0,0,6.461,5.315,1.82,1.82,0,0,0,8.076,3.347,1.82,1.82,0,0,0,6.461,1.379" transform="translate(-1.076 0)" fill="#fff"/>
      <path id="Trazado_304" data-name="Trazado 304" d="M9.766,17.594H.888A.691.691,0,0,1,.2,16.952L0,14.086a2.927,2.927,0,0,1,1.842-2.738,10.346,10.346,0,0,1,6.955,0,2.919,2.919,0,0,1,1.848,2.741l-.2,2.863a.69.69,0,0,1-.689.643M1.534,16.214H9.123l.151-2.221a1.569,1.569,0,0,0-.942-1.35,8.981,8.981,0,0,0-6.013,0,1.574,1.574,0,0,0-.938,1.349Z" transform="translate(0 -3.335)" fill="#fff"/>
      <path id="Trazado_305" data-name="Trazado 305" d="M9.766,17.594H.888A.691.691,0,0,1,.2,16.952L0,14.086a2.927,2.927,0,0,1,1.842-2.738,10.346,10.346,0,0,1,6.955,0,2.919,2.919,0,0,1,1.848,2.741l-.2,2.863a.69.69,0,0,1-.689.643M1.534,16.214H9.123l.151-2.221a1.569,1.569,0,0,0-.942-1.35,8.981,8.981,0,0,0-6.013,0,1.574,1.574,0,0,0-.938,1.349Z" transform="translate(0 -3.335)" fill="#fff"/>
      <path id="Trazado_306" data-name="Trazado 306" d="M19.986,17.93H16.451a.69.69,0,1,1,0-1.379h2.891l.126-1.83a1.267,1.267,0,0,0-.753-1.072A7.567,7.567,0,0,0,16.3,13.21a.69.69,0,0,1-.677-.7.683.683,0,0,1,.7-.678,8.982,8.982,0,0,1,2.865.521,2.621,2.621,0,0,1,1.658,2.463l-.17,2.474a.691.691,0,0,1-.688.642" transform="translate(-4.848 -3.672)" fill="#fff"/>
      <path id="Trazado_307" data-name="Trazado 307" d="M16.887,8.277A2.638,2.638,0,0,1,14.4,5.516a2.639,2.639,0,0,1,2.487-2.762,2.638,2.638,0,0,1,2.486,2.762,2.637,2.637,0,0,1-2.486,2.761m0-4.144a1.269,1.269,0,0,0-1.108,1.383A1.269,1.269,0,0,0,16.887,6.9a1.269,1.269,0,0,0,1.107-1.382,1.269,1.269,0,0,0-1.107-1.383" transform="translate(-4.47 -0.855)" fill="#fff"/>
    </g>
  </g>
</svg>
