<svg xmlns="http://www.w3.org/2000/svg" xmlns:xlink="http://www.w3.org/1999/xlink" width="17.171" height="19.152" viewBox="0 0 17.171 19.152"><defs><clipPath id="a"><rect width="17.171" height="19.152" fill="#d2d2d2"/></clipPath></defs><g clip-path="url(#a)"><path d="M15.4,19.152H1.769A1.771,1.771,0,0,1,0,17.381V7.444a.753.753,0,0,1,.264-.572L8.131.179a.75.75,0,0,1,.975,0l7.8,6.693a.751.751,0,0,1,.261.57v9.937a1.772,1.772,0,0,1-1.77,1.771M1.5,7.791v9.59a.269.269,0,0,0,.268.269H15.4a.269.269,0,0,0,.269-.269V7.789L8.615,1.738Z" transform="translate(0 0)" fill="#d2d2d2"/><path d="M15.549,22.246H1.916a1.4,1.4,0,0,1-1.3-.9.38.38,0,0,1,.1-.414l7.768-6.926a.374.374,0,0,1,.5,0l7.766,6.926a.377.377,0,0,1,.1.414,1.4,1.4,0,0,1-1.3.9m-14.1-.958a.632.632,0,0,0,.471.207H15.549a.636.636,0,0,0,.472-.207l-7.288-6.5Z" transform="translate(-0.148 -3.47)" fill="#d2d2d2"/><path d="M14.5,15.84a.376.376,0,0,1-.251-.655l5.377-4.794a.375.375,0,0,1,.5.56l-5.377,4.794a.376.376,0,0,1-.249.1" transform="translate(-3.524 -2.568)" fill="#d2d2d2"/><path d="M6.384,15.878a.377.377,0,0,1-.251-.1L.717,10.952a.376.376,0,0,1,.5-.561l5.416,4.831a.375.375,0,0,1-.249.655" transform="translate(-0.148 -2.568)" fill="#d2d2d2"/></g></svg>