<svg xmlns="http://www.w3.org/2000/svg" xmlns:xlink="http://www.w3.org/1999/xlink" width="15.302" height="15.561" viewBox="0 0 15.302 15.561">
  <defs>
    <clipPath id="clip-path">
      <rect id="Rectangle_9" data-name="Rectangle 9" width="15.302" height="15.561" fill="#fff"/>
    </clipPath>
  </defs>
  <g id="Group_14" data-name="Group 14" clip-path="url(#clip-path)">
    <path id="Path_28" data-name="Path 28" d="M6.676,13.354a6.677,6.677,0,1,1,6.679-6.677,6.685,6.685,0,0,1-6.679,6.677m0-12.014a5.337,5.337,0,1,0,5.338,5.338A5.347,5.347,0,0,0,6.677,1.34" transform="translate(0 0)" fill="#fff"/>
    <path id="Path_29" data-name="Path 29" d="M19.677,20.733a.668.668,0,0,1-.474-.2l-3.729-3.729a.67.67,0,0,1,.947-.947l3.729,3.729a.67.67,0,0,1-.474,1.143" transform="translate(-5.045 -5.173)" fill="#fff"/>
  </g>
</svg>
