<svg xmlns="http://www.w3.org/2000/svg" xmlns:xlink="http://www.w3.org/1999/xlink" width="16.511" height="13.672" viewBox="0 0 16.511 13.672">
  <defs>
    <clipPath id="clip-path">
      <rect id="Rectangle_6" data-name="Rectangle 6" width="16.511" height="13.672" transform="translate(0 0)" fill="none"/>
    </clipPath>
  </defs>
  <g id="Group_9" data-name="Group 9" transform="translate(0 0)">
    <g id="Group_8" data-name="Group 8" transform="translate(0 0)" clip-path="url(#clip-path)">
      <path id="Path_22" data-name="Path 22" d="M16.379,2.71a.649.649,0,0,0-.518-.257H4.286L3.776.589a.652.652,0,0,0-.6-.478L.68,0A.629.629,0,0,0,0,.624.652.652,0,0,0,.623,1.3l2.023.089.49,1.79a.658.658,0,0,0,.015.1L4.817,9.321a.665.665,0,0,0,.038.1c0,.007.008.013.011.02a.638.638,0,0,0,.041.072c.011.017.025.031.037.047s.018.024.029.035.029.026.044.039.022.021.034.03.031.02.046.03.027.018.042.026.036.016.054.024.027.013.042.018a.622.622,0,0,0,.09.022l.012,0a.623.623,0,0,0,.107.009h8.75a.65.65,0,0,0,.627-.478l1.667-6.044a.648.648,0,0,0-.109-.567M13.7,8.5H5.942l-1.3-4.742H15.005Z" transform="translate(0 0)" fill="#fff"/>
      <path id="Path_23" data-name="Path 23" d="M24.092,43.212A1.79,1.79,0,1,0,25.883,45a1.792,1.792,0,0,0-1.79-1.79m0,2.279A.488.488,0,1,1,24.58,45a.489.489,0,0,1-.488.488" transform="translate(-17.094 -33.12)" fill="#fff"/>
      <path id="Path_24" data-name="Path 24" d="M47.323,43.212A1.79,1.79,0,1,0,49.113,45a1.792,1.792,0,0,0-1.79-1.79m0,2.279A.488.488,0,1,1,47.812,45a.489.489,0,0,1-.488.488" transform="translate(-34.899 -33.12)" fill="#fff"/>
    </g>
  </g>
</svg>
