<svg xmlns="http://www.w3.org/2000/svg" xmlns:xlink="http://www.w3.org/1999/xlink" width="18.211" height="15.561" viewBox="0 0 18.211 15.561">
  <defs>
    <clipPath id="clip-path">
      <rect id="Rectangle_8" data-name="Rectangle 8" width="18.211" height="15.561" fill="#fff"/>
    </clipPath>
  </defs>
  <g id="Group_13" data-name="Group 13" transform="translate(0 0)">
    <g id="Group_12" data-name="Group 12" transform="translate(0 0)" clip-path="url(#clip-path)">
      <path id="Path_26" data-name="Path 26" d="M3.033,13.4c-.178,0-.359-.006-.541-.02a.716.716,0,0,1-.265-1.358,3.755,3.755,0,0,0,1.259-.98A5.844,5.844,0,0,1,0,5.97C0,2.678,3.311,0,7.382,0s7.381,2.678,7.381,5.97-3.311,5.97-7.381,5.97c-.084,0-.168,0-.251-.005a6.039,6.039,0,0,1-4.1,1.462M7.382,1.434c-3.28,0-5.948,2.035-5.948,4.535a4.644,4.644,0,0,0,3.349,4.072.716.716,0,0,1,.392.988l-.035.072a2.756,2.756,0,0,1-.126.247c-.066.11-.136.217-.21.321A3.966,3.966,0,0,0,6.343,10.7a.737.737,0,0,1,.559-.217c.158.01.318.019.481.019,3.278,0,5.946-2.034,5.946-4.535S10.659,1.434,7.382,1.434" transform="translate(0 0)" fill="#fff"/>
      <path id="Path_27" data-name="Path 27" d="M18.207,17.464a4.574,4.574,0,0,1-2.532-.729c-.045.01-.088.019-.133.027a5.826,5.826,0,0,1-6.495-3.011.717.717,0,1,1,1.317-.567,4.4,4.4,0,0,0,4.926,2.166c.123-.022.243-.052.362-.082a.718.718,0,0,1,.621.133,2.824,2.824,0,0,0,.916.479l0,0c-.055-.07-.1-.136-.141-.2a.794.794,0,0,1-.125-.579.751.751,0,0,1,.306-.486,3.975,3.975,0,0,0,2.058-3.853,3.478,3.478,0,0,0-2.256-2.642.717.717,0,0,1,.54-1.328A4.945,4.945,0,0,1,20.7,10.533a5.249,5.249,0,0,1-2.045,4.814,2.79,2.79,0,0,0,1,.555.717.717,0,0,1-.037,1.378,5.606,5.606,0,0,1-1.412.185" transform="translate(-2.542 -1.904)" fill="#fff"/>
    </g>
  </g>
</svg>
