<svg id="Grupo_51" data-name="Grupo 51" xmlns="http://www.w3.org/2000/svg" xmlns:xlink="http://www.w3.org/1999/xlink" width="13.46" height="13.459" viewBox="0 0 13.46 13.459">
  <defs>
    <clipPath id="clip-path">
      <rect id="Rectángulo_41" data-name="Rectángulo 41" width="13.46" height="13.459" fill="#535353"/>
    </clipPath>
  </defs>
  <g id="Grupo_50" data-name="Grupo 50" clip-path="url(#clip-path)">
    <path id="Trazado_89" data-name="Trazado 89" d="M4.835,13.459l-.046,0C3.5,13.351,2.12,13.331.7,13.318a.561.561,0,0,1-.556-.557C.127,11.335.108,9.949,0,8.671a.565.565,0,0,1,.162-.443L8.226.165A.565.565,0,0,1,8.8.028a7.221,7.221,0,0,1,4.634,4.633.562.562,0,0,1-.137.572L5.232,13.295a.561.561,0,0,1-.4.165M1.259,12.2c1.156.013,2.284.038,3.361.117l7.629-7.628A6.1,6.1,0,0,0,8.771,1.211L1.142,8.839c.079,1.072.1,2.2.117,3.361" transform="translate(0 0)" fill="#535353"/>
    <path id="Trazado_90" data-name="Trazado 90" d="M17.333,7.307a.281.281,0,0,1-.2-.082L13.293,3.384a.281.281,0,0,1,.4-.4l3.842,3.84a.281.281,0,0,1-.2.48" transform="translate(-5.786 -1.272)" fill="#535353"/>
    <path id="Trazado_91" data-name="Trazado 91" d="M5.45,19.19A.281.281,0,0,1,5.183,19a5.712,5.712,0,0,0-3.656-3.657A.281.281,0,0,1,1.7,14.8a6.275,6.275,0,0,1,4.018,4.018.282.282,0,0,1-.182.354.286.286,0,0,1-.086.013" transform="translate(-0.584 -6.479)" fill="#535353"/>
    <path id="Trazado_92" data-name="Trazado 92" d="M2.9,21.252H2.893L.969,21.186A.279.279,0,0,1,.7,20.915l-.069-2a.282.282,0,0,1,.258-.29,1.428,1.428,0,0,1,.175-.016A2.147,2.147,0,0,1,3.207,20.75a1.53,1.53,0,0,1-.021.228.32.32,0,0,1-.285.274M1.25,20.634l1.393.048A1.584,1.584,0,0,0,1.2,19.173Z" transform="translate(-0.275 -8.15)" fill="#535353"/>
  </g>
</svg>
